<svg fill="#ffffff" height="400" width="400" version="1.1" id="Layer_1" xmlns="http://www.w3.org/2000/svg" xmlns:xlink="http://www.w3.org/1999/xlink" viewBox="-51.2 -51.2 614.40 614.40" xml:space="preserve" stroke="#ffffff">
<g id="SVGRepo_bgCarrier" stroke-width="0" transform="translate(71.68,71.68), scale(0.72)">
<path transform="translate(-51.2, -51.2), scale(38.4)" fill="#20df2d" d="M9.166.33a2.25 2.25 0 00-2.332 0l-5.25 3.182A2.25 2.25 0 00.5 5.436v5.128a2.25 2.25 0 001.084 1.924l5.25 3.182a2.25 2.25 0 002.332 0l5.25-3.182a2.25 2.25 0 001.084-1.924V5.436a2.25 2.25 0 00-1.084-1.924L9.166.33z" strokewidth="0">
</path>
</g>
<g id="SVGRepo_tracerCarrier" stroke-linecap="round" stroke-linejoin="round" stroke="#CCCCCC" stroke-width="1.024">
</g>
<g id="SVGRepo_iconCarrier">
 <g>
 <path d="M230.4,165.2c-4.1,0-7.4,3.3-7.4,7.4s3.3,7.4,7.4,7.4c4.1,0,7.4-3.3,7.4-7.4C237.8,168.5,234.5,165.2,230.4,165.2z">
</path>
 <path d="M289.8,165.2c-4.1,0-7.4,3.3-7.4,7.4s3.3,7.4,7.4,7.4c4.1,0,7.4-3.3,7.4-7.4C297.3,168.5,294,165.2,289.8,165.2z">
</path>
 <path d="M0,0v512h512V0L0,0L0,0z M180.8,288.2c0,8.2-6.7,14.9-14.9,14.9c-8.2,0-14.9-6.7-14.9-14.9v-63.6c0-8.2,6.7-14.9,14.9-14.9 c8.2,0,14.9,6.7,14.9,14.9V288.2z M329.5,222.1v10.1v86.6c0,8.7-7,15.7-15.7,15.7h-11.3c0.4,1.3,0.6,2.7,0.6,4.1v0.8v5V370 c0,8.2-6.7,14.9-14.9,14.9s-14.9-6.7-14.9-14.9v-25.6v-5v-0.8c0-1.4,0.2-2.8,0.6-4.1h-27.6c0.4,1.3,0.6,2.7,0.6,4.1v0.8v5V370 c0,8.2-6.7,14.9-14.9,14.9s-14.9-6.7-14.9-14.9v-25.6v-5v-0.8c0-1.4,0.2-2.8,0.6-4.1h-11.3c-8.7,0-15.7-7-15.7-15.7v-86.6v-10.1 v-12.4h1.1h136.6h1.1L329.5,222.1L329.5,222.1z M190.7,199.9c0-21.2,14.2-39.8,35.3-49.6l-2.8-4.2l-2.8-4.1l-6.2-9.3 c-0.7-1.1-0.4-2.7,0.7-3.4c1.1-0.8,2.7-0.4,3.4,0.7l6.6,9.9l2.8,4.2l2.8,4.2c9-3.5,18.9-5.4,29.5-5.4c10.5,0,20.5,1.9,29.5,5.4 l2.8-4.2l2.8-4.2l6.6-9.9c0.7-1.1,2.3-1.5,3.4-0.7s1.5,2.3,0.7,3.4l-6.2,9.3l-2.6,4.1l-2.8,4.2c21,9.8,35.2,28.3,35.2,49.6 L190.7,199.9L190.7,199.9z M369.1,288.2c0,8.2-6.7,14.9-14.9,14.9c-8.2,0-14.9-6.7-14.9-14.9v-63.6c0-8.2,6.7-14.9,14.9-14.9 c8.2,0,14.9,6.7,14.9,14.9V288.2z">
</path>
 </g>
 </g>
</svg>
